<?xml version="1.0" encoding="utf-8"?>
<svg version="1.1" xmlns="http://www.w3.org/2000/svg" xmlns:xlink="http://www.w3.org/1999/xlink" x="0px" y="0px" viewBox="0 0 96 115" enable-background="new 0 0 96 115" xml:space="preserve">
	<path fill="#333333" d="M65.3,15H18.9v95h72.2V40.7L65.3,15z M84.1,103H25.9V22h36.5l0,0v21.6h21.6l0,0V103z"/>
	<g opacity="0.4">
		<polygon fill="#333333" points="77.1,38.7 70.1,38.7 70.1,33.6 66.5,30.1 71.5,25.1 77.1,30.7"/>
		<path fill="#333333" d="M63.3,26.9L53,16.5l5-5l10.4,10.4L63.3,26.9z M49.8,13.3L48.4,12h-9.9V5h12.8l3.4,3.4L49.8,13.3z M34.1,12H19.4V5h14.7V12z"/>
		<polygon fill="#333333" points="11.9,15 4.9,15 4.9,5 14.9,5 14.9,12 11.9,12"/>
		<path fill="#333333" d="M11.9,85.8h-7V72.3h7V85.8z M11.9,68.1h-7V54.6h7V68.1z M11.9,50.4h-7V36.9h7V50.4z M11.9,32.7h-7V19.2h7V32.7z"/>
		<polygon fill="#333333" points="14.9,100 4.9,100 4.9,90 11.9,90 11.9,93 14.9,93"/>
		<path fill="#333333" d="M63.3,100H51v-7h12.3V100z M47.2,100H34.8v-7h12.3V100z M31,100H18.7v-7H31V100z"/>
		<polygon fill="#333333" points="77.1,100 67.1,100 67.1,93 70.1,93 70.1,90 77.1,90"/>
		<path fill="#333333" d="M77.1,86.3h-7V74.1h7V86.3z M77.1,70.4h-7V58.3h7V70.4z M77.1,54.6h-7V42.4h7V54.6z"/>
	</g>
	<polygon fill="#333333" points="82.4,84.3 69.8,74.5 57.2,64.7 59.4,80.5 61.5,96.3 67.6,87 76,101.2 79.8,98.9 71.4,84.9 "/>
	<line fill="#333333" x1="53.3" y1="71.9" x2="48.4" y2="75.1"/>
	<path fill="#333333" d="M48.4,76.1c-0.3,0-0.6-0.2-0.8-0.5c-0.3-0.5-0.2-1.1,0.3-1.4l4.9-3.2c0.5-0.3,1.1-0.2,1.4,0.3c0.3,0.5,0.2,1.1-0.3,1.4L49,76C48.8,76.1,48.6,76.1,48.4,76.1z"/>
	<line fill="#333333" x1="71.1" y1="60.2" x2="66.2" y2="63.5"/>
	<path fill="#333333" d="M66.2,64.5c-0.3,0-0.6-0.2-0.8-0.5c-0.3-0.5-0.2-1.1,0.3-1.4l4.9-3.2c0.5-0.3,1.1-0.2,1.4,0.3c0.3,0.5,0.2,1.1-0.3,1.4l-4.9,3.2C66.5,64.4,66.4,64.5,66.2,64.5z"/>
	<line fill="#333333" x1="52.2" y1="66.1" x2="46.5" y2="65"/>
	<path fill="#333333" d="M52.2,67.1c-0.1,0-0.1,0-0.2,0l-5.8-1.2c-0.5-0.1-0.9-0.6-0.8-1.2c0.1-0.5,0.6-0.9,1.2-0.8l5.8,1.2c0.5,0.1,0.9,0.6,0.8,1.2C53.1,66.8,52.7,67.1,52.2,67.1z"/>
	<line fill="#333333" x1="55.5" y1="61.3" x2="52.3" y2="56.4"/>
	<path fill="#333333" d="M55.5,62.3c-0.3,0-0.6-0.2-0.8-0.5l-3.2-4.9c-0.3-0.5-0.2-1.1,0.3-1.4c0.5-0.3,1.1-0.2,1.4,0.3l3.2,4.9c0.3,0.5,0.2,1.1-0.3,1.4C55.9,62.2,55.7,62.3,55.5,62.3z"/>
	<line fill="#333333" x1="62.5" y1="54.4" x2="61.2" y2="60.7"/>
	<path fill="#333333" d="M61.2,61.7c-0.1,0-0.1,0-0.2,0c-0.5-0.1-0.9-0.6-0.8-1.2l1.3-6.3c0.1-0.5,0.6-0.9,1.2-0.8c0.5,0.1,0.9,0.6,0.8,1.2l-1.3,6.3C62.1,61.4,61.7,61.7,61.2,61.7z"/>
</svg>
