<?xml version="1.0" encoding="utf-8"?>
<svg version="1.1" xmlns="http://www.w3.org/2000/svg" xmlns:xlink="http://www.w3.org/1999/xlink" x="0px" y="0px" viewBox="0 0 200 200" enable-background="new 0 0 200 200" xml:space="preserve">
	<path d="M133.4,63.6c-2.8,0-5,2.2-5,5s2.2,5,5,5h24.1v108h-115v-108h26.9c2.8,0,5-2.2,5-5s-2.2-5-5-5H32.5v128h135v-128H133.4z"/>
	<path d="M121,92.7l-16,16V11.4c0-2.8-2.2-5-5-5c-2.8,0-5,2.2-5,5v97.3l-16-16c-1-1-2.3-1.5-3.5-1.5s-2.6,0.5-3.5,1.5c-2,2-2,5.1,0,7.1l28.1,28.1l28.1-28.1c2-2,2-5.1,0-7.1C126.1,90.7,123,90.7,121,92.7z"/>
</svg>