<?xml version="1.0" encoding="utf-8"?>
<svg version="1.1" xmlns="http://www.w3.org/2000/svg" xmlns:xlink="http://www.w3.org/1999/xlink" x="0px" y="0px" viewBox="0 0 200 200" enable-background="new 0 0 200 200" xml:space="preserve">
	<path fill="#FFFFFF" d="M189.7,166.7l-29.5-53.4c6.9-11,10.9-23.9,10.9-37.8c0-39.2-31.9-71.1-71.1-71.1S28.8,36.2,28.8,75.5c0,13.9,4,26.9,10.9,37.8l-29.4,53.3c-1,1.8-0.8,4.1,0.6,5.7c1.4,1.6,3.6,2.2,5.5,1.4l28.1-10.5l8.4,28.8c0.6,2,2.4,3.4,4.4,3.6c0.1,0,0.2,0,0.4,0c1.9,0,3.7-1.1,4.6-2.9l21.8-47.9c5.1,1.2,10.4,1.8,15.9,1.8c5.4,0,10.7-0.6,15.8-1.8l21.8,47.9c0.8,1.8,2.6,2.9,4.5,2.9c0.1,0,0.2,0,0.4,0c2.1-0.2,3.9-1.6,4.4-3.6l8.4-28.8l28.2,10.5c2,0.7,4.2,0.2,5.5-1.4C190.4,170.8,190.7,168.5,189.7,166.7z M58.8,176.3l-6.1-21c-0.4-1.3-1.3-2.4-2.6-3.1c-1.2-0.6-2.7-0.7-4-0.2l-20.5,7.7l20.7-37.5c7.6,8.7,17.2,15.5,28.1,19.7L58.8,176.3z M38.8,75.5c0-33.7,27.4-61.1,61.1-61.1s61.1,27.4,61.1,61.1s-27.4,61.1-61.1,61.1S38.8,109.2,38.8,75.5z M153.8,152c-1.3-0.5-2.7-0.4-4,0.2c-1.2,0.6-2.2,1.7-2.6,3.1l-6.1,21l-15.7-34.5c10.9-4.2,20.6-11.1,28.2-19.8l20.8,37.6L153.8,152z"/>
</svg>
