<?xml version="1.0" encoding="utf-8"?>
<!-- Generator: Adobe Illustrator 18.1.1, SVG Export Plug-In . SVG Version: 6.00 Build 0)  -->
<svg version="1.1" id="Calque_1" xmlns="http://www.w3.org/2000/svg" xmlns:xlink="http://www.w3.org/1999/xlink" x="0px" y="0px"
	 viewBox="0 0 200 200" enable-background="new 0 0 200 200" xml:space="preserve">
<path fill="#FFFFFF" stroke="#FFFFFF" stroke-miterlimit="10" d="M185.9,34.6c0-2.9-2.3-5.3-5.3-5.3H73.6
	c-2.4-8.8-10.4-14.9-19.5-14.9s-17.1,6-19.5,14.9H19.3c-2.9,0-5.3,2.4-5.3,5.3s2.4,5.3,5.3,5.3h15.2v0.1
	c2.4,8.8,10.4,14.9,19.5,14.9s17.1-6,19.5-14.9h107.1v0C183.5,39.9,185.9,37.5,185.9,34.6C185.9,34.6,185.9,34.6,185.9,34.6
	C185.9,34.6,185.9,34.6,185.9,34.6z M54.1,44c-5.2,0-9.5-4.2-9.5-9.5c0-5.2,4.2-9.5,9.5-9.5s9.5,4.2,9.5,9.5
	C63.5,39.8,59.3,44,54.1,44z"/>
<path fill="#FFFFFF" stroke="#FFFFFF" stroke-miterlimit="10" d="M126.4,105.6c2.4,8.8,10.4,14.9,19.5,14.9c9.1,0,17.1-6,19.5-14.9
	h15.2c2.9,0,5.3-2.4,5.3-5.3c0-2.9-2.4-5.3-5.3-5.3h-15.2c-2.4-8.8-10.4-14.9-19.5-14.9c-9.1,0-17.1,6-19.5,14.9H19.3
	c-2.9,0-5.3,2.4-5.3,5.3c0,2.9,2.3,5.3,5.3,5.3H126.4z M145.9,90.9c5.2,0,9.5,4.2,9.5,9.5c0,5.2-4.2,9.5-9.5,9.5
	c-5.2,0-9.5-4.2-9.5-9.5S140.7,90.9,145.9,90.9z"/>
<path fill="#FFFFFF" stroke="#FFFFFF" stroke-miterlimit="10" d="M180.7,160.2H73.6c-2.4-8.8-10.4-14.9-19.5-14.9s-17.1,6-19.5,14.9
	H19.3c-2.9,0-5.3,2.4-5.3,5.3s2.4,5.3,5.3,5.3h15.2c2.4,8.8,10.4,14.9,19.5,14.9s17.1-6,19.5-14.9h107.1c2.9,0,5.3-2.4,5.3-5.3
	S183.6,160.2,180.7,160.2z M54.1,174.9c-5.2,0-9.5-4.2-9.5-9.5c0-5.2,4.2-9.5,9.5-9.5s9.5,4.2,9.5,9.5S59.3,174.9,54.1,174.9z"/>
</svg>
