<?xml version="1.0" encoding="utf-8"?>
<svg version="1.1" xmlns="http://www.w3.org/2000/svg" xmlns:xlink="http://www.w3.org/1999/xlink" x="0px" y="0px" viewBox="0 0 525 450" enable-background="new 0 0 525 450" xml:space="preserve">
	<g fill="#FFFFFF">
		<path d="M264.2,76.9c-7.2,0-13-5.9-13-13V16.5c0-7.2,5.8-13,13-13c7.2,0,13,5.8,13,13v47.4C277.2,71.1,271.4,76.9,264.2,76.9"/>
		<path d="M112.1,39l33.5,33.5c5.1,5.1,5.1,13.3,0,18.4c-5.1,5.1-13.3,5.1-18.4,0L93.7,57.4c-5.1-5.1-5.1-13.3,0-18.4C98.8,33.9,107,33.9,112.1,39"/>
		<path d="M377.2,90.9c-5.1-5.1-5.1-13.3,0-18.4L410.7,39c5.1-5.1,13.3-5.1,18.4,0c5.1,5.1,5.1,13.3,0,18.4l-33.5,33.5C390.5,96,382.3,96,377.2,90.9"/>
		<path d="M264.2,373.1c-7.2,0-13,5.8-13,13v47.4c0,7.2,5.8,13,13,13c7.2,0,13-5.8,13-13v-47.4C277.2,379,271.4,373.1,264.2,373.1"/>
		<path d="M112.1,411l33.5-33.5c5.1-5.1,5.1-13.3,0-18.4c-5.1-5.1-13.3-5.1-18.4,0l-33.5,33.5c-5.1,5.1-5.1,13.3,0,18.4C98.8,416.1,107,416.1,112.1,411"/>
		<path d="M377.2,359.1c-5.1,5.1-5.1,13.3,0,18.4l33.5,33.5c5.1,5.1,13.3,5.1,18.4,0c5.1-5.1,5.1-13.3,0-18.4l-33.5-33.5C390.5,354,382.3,354,377.2,359.1"/>
		<path d="M3.5,225c0,7.2,5.9,13,13,13h47.4c7.2,0,13-5.8,13-13c0-7.2-5.8-13-13-13H16.5C9.3,212,3.5,217.8,3.5,225"/>
		<path d="M448.1,225c0,7.2,5.9,13,13,13h47.4c7.2,0,13-5.8,13-13c0-7.2-5.8-13-13-13h-47.4C453.9,212,448.1,217.8,448.1,225"/>
		<path d="M127.3,225c0.2,3.9,2,8.2,5.2,12.3c19.8,25.2,72.6,73,130,73c57.4,0,110.2-47.8,130.1-73.1c3.2-4.1,5-8.3,5.2-12.2c-0.2-3.9-2-8.1-5.2-12.2c-19.9-25.3-72.6-73-130-73c-57.4,0-110.2,47.8-130.1,73.1C129.3,216.8,127.5,221.1,127.3,225 M262.5,339.7c-29.9,0-62.2-10.6-93.2-30.6c-22.5-14.5-44.9-34.6-60-53.7c-7.2-9.3-11.2-19.7-11.5-30c0-0.3,0-0.5,0-0.8c0.3-10.3,4.2-20.7,11.4-30c15.1-19.2,37.5-39.2,60.1-53.8c31.1-20,63.3-30.6,93.2-30.6c29.9,0,62.1,10.6,93.2,30.6c22.5,14.5,44.9,34.6,60,53.7c7.3,9.3,11.3,19.6,11.5,30c0,0.3,0,0.5,0,0.8c-0.3,10.4-4.3,20.8-11.5,30c-15,19.1-37.5,39.2-60,53.7C324.6,329.1,292.4,339.7,262.5,339.7"/>
		<path d="M283.3,245.9c-11.5,11.5-30.2,11.5-41.7,0c-11.5-11.5-11.5-30.2,0-41.7c11.5-11.5,30.2-11.5,41.7,0C294.9,215.7,294.9,234.3,283.3,245.9 M300.4,187.1c-21-21-54.9-21-75.9,0c-21,21-21,54.9,0,75.9c21,21,54.9,21,75.9,0C321.4,242,321.4,208,300.4,187.1"/>
	</g>
</svg>