o cube
 
v  0.0  0.0  0.0
v  0.0  0.0  1.0
v  0.0  1.0  0.0
v  0.0  1.0  1.0
v  1.0  0.0  0.0
v  1.0  0.0  1.0
v  1.0  1.0  0.0
v  1.0  1.0  1.0

vn  0.0  0.0  1.0
vn  0.0  0.0 -1.0
vn  0.0  1.0  0.0
vn  0.0 -1.0  0.0
vn  1.0  0.0  0.0
vn -1.0  0.0  0.0
 
vt 0.25 0.0
vt 0.5  0.0
vt 0    0.25
vt 0.25 0.25
vt 0.5  0.25
vt 0.75 0.25
vt 0.0  0.5
vt 0.25 0.5
vt 0.5  0.5
vt 0.75 0.5
vt 0.25 0.75
vt 0.5  0.75
vt 0.25 1.0
vt 0.5  1.0

f  1/11/2  7/14/2  5/12/2
f  1/11/2  3/13/2  7/14/2 
f  1/7/6  4/4/6  3/3/6 
f  1/7/6  2/8/6  4/4/6 
f  3/1/3  8/5/3  7/2/3 
f  3/1/3  4/4/3  8/5/3 
f  5/10/5  7/6/5  8/5/5 
f  5/10/5  8/5/5  6/9/5 
f  1/11/4  5/12/4  6/9/4 
f  1/11/4  6/9/4  2/8/4 
f  2/8/1  6/9/1  8/5/1 
f  2/8/1  8/5/1  4/4/1 